<?xml version="1.0" encoding="UTF-8"?>
<svg xmlns="http://www.w3.org/2000/svg" xmlns:xlink="http://www.w3.org/1999/xlink" viewBox="0 0 1360.98 279.21">
  <defs>
    <style>
      .cls-1 {
        mask: url(#mask);
      }

      .cls-2, .cls-3, .cls-4, .cls-5, .cls-6, .cls-7, .cls-8 {
        fill-rule: evenodd;
      }

      .cls-2, .cls-9 {
        fill: #1d1d1b;
      }

      .cls-3 {
        fill: url(#linear-gradient-2);
      }

      .cls-4 {
        fill: #e5282a;
      }

      .cls-5, .cls-10, .cls-6 {
        fill: #fff;
      }

      .cls-11 {
        fill: url(#radial-gradient);
        mix-blend-mode: multiply;
        opacity: .64;
      }

      .cls-12 {
        fill: url(#radial-gradient-3);
      }

      .cls-13 {
        fill: url(#linear-gradient-3);
      }

      .cls-14 {
        isolation: isolate;
      }

      .cls-15 {
        mask: url(#mask-1);
      }

      .cls-6 {
        opacity: .28;
      }

      .cls-7 {
        fill: url(#linear-gradient);
      }

      .cls-8 {
        fill: url(#radial-gradient-2);
      }
    </style>
    <radialGradient id="radial-gradient" cx="121.7" cy="238.75" fx="121.7" fy="238.75" r="115.98" gradientTransform="translate(0 161.91) scale(1 .32)" gradientUnits="userSpaceOnUse">
      <stop offset="0" stop-color="#1d1d1b"/>
      <stop offset=".28" stop-color="#1d1d1b" stop-opacity=".45"/>
      <stop offset=".6" stop-color="#1d1d1b" stop-opacity=".11"/>
      <stop offset="1" stop-color="#1d1d1b" stop-opacity="0"/>
    </radialGradient>
    <linearGradient id="linear-gradient" x1="195.08" y1="197.12" x2="73.51" y2="-13.45" gradientUnits="userSpaceOnUse">
      <stop offset="0" stop-color="#4d4d4d"/>
      <stop offset=".27" stop-color="#fff"/>
      <stop offset=".32" stop-color="#999"/>
      <stop offset=".81" stop-color="#1a1a1a"/>
      <stop offset=".96" stop-color="#d6d6d6"/>
      <stop offset="1" stop-color="#303030"/>
    </linearGradient>
    <linearGradient id="linear-gradient-2" x1="74.3" y1="-12.09" x2="194.3" y2="195.77" gradientUnits="userSpaceOnUse">
      <stop offset="0" stop-color="#4d4d4d"/>
      <stop offset=".56" stop-color="#fff"/>
      <stop offset=".59" stop-color="#999"/>
      <stop offset="1" stop-color="#000"/>
    </linearGradient>
    <radialGradient id="radial-gradient-2" cx="42.08" cy="36.46" fx="42.08" fy="36.46" r="164.82" gradientUnits="userSpaceOnUse">
      <stop offset="0" stop-color="#000"/>
      <stop offset=".48" stop-color="#fff"/>
      <stop offset=".64" stop-color="#292929"/>
      <stop offset="1" stop-color="#919191"/>
    </radialGradient>
    <radialGradient id="radial-gradient-3" cx="37.74" cy="22.79" fx="37.74" fy="22.79" r="46.11" gradientUnits="userSpaceOnUse">
      <stop offset="0" stop-color="#fff"/>
      <stop offset=".47" stop-color="#1d1d1b"/>
    </radialGradient>
    <mask id="mask" x="-8.37" y="-23.32" width="92.23" height="107.93" maskUnits="userSpaceOnUse">
      <path class="cls-12" d="M83.86,22.8c0,25.47-20.65,46.11-46.11,46.11S-8.37,48.26-8.37,22.8,12.27-23.32,37.74-23.32,83.86-2.67,83.86,22.8Z"/>
    </mask>
    <linearGradient id="linear-gradient-3" x1="153.15" y1="-438.48" x2="153.15" y2="-260.23" gradientTransform="translate(-66.63 253.22) scale(1 .56)" gradientUnits="userSpaceOnUse">
      <stop offset=".1" stop-color="#fff"/>
      <stop offset="1" stop-color="#1d1d1b"/>
    </linearGradient>
    <mask id="mask-1" x="-51.13" y="-58.31" width="275.25" height="235" maskUnits="userSpaceOnUse">
      <rect class="cls-13" x="-47.06" y="9.7" width="267.1" height="98.99" transform="translate(-18.31 60.78) rotate(-35.25)"/>
    </mask>
  </defs>
  <g class="cls-14">
    <g id="katman_2" data-name="katman 2">
      <g id="katman_1" data-name="katman 1">
        <g>
          <g>
            <path class="cls-10" d="M701.62,85.41v-18.84h-29.18v18.84c4.03,3.16,9.08,5.07,14.59,5.07s10.56-1.9,14.59-5.07"/>
            <path class="cls-10" d="M687.03,94.15c-5.36,0-10.36-1.58-14.59-4.26v95.79h29.18v-95.79c-4.23,2.68-9.22,4.26-14.59,4.26"/>
            <path class="cls-10" d="M1327.3,185.53c.64-1.49,1-3.13,1-4.86,0-6.82-5.53-12.37-12.33-12.37s-12.33,5.54-12.33,12.37c0,1.69.34,3.3.96,4.76,3.59.83,7.38,1.24,11.37,1.24s7.77-.4,11.33-1.15"/>
            <path class="cls-10" d="M1316.13,160.58c-5.11,0-8.95-1.68-11.5-5.02-3-3.9-4.5-13.72-4.5-29.44s1.5-25.54,4.5-29.44c2.55-3.35,6.39-5.02,11.5-5.02,7.78,0,12.84,4.24,15.18,12.72h29.68c-2.11-12.72-7.34-22.47-15.67-29.27-7.9-6.36-17.67-9.54-29.35-9.54-13.12,0-24.12,4.46-33.01,13.38-5.56,5.58-9.12,12.77-10.67,21.58-.89,4.91-1.33,13.44-1.33,25.59s.44,20.69,1.33,25.59c1.55,8.81,5.11,16,10.67,21.58,5.11,5.13,10.93,8.78,17.44,10.96-.27-1.16-.41-2.35-.41-3.59,0-8.84,7.17-16.03,15.98-16.03s15.99,7.19,15.99,16.03c0,1.31-.18,2.57-.47,3.78,5.11-1.58,9.73-4.01,13.83-7.31,8.34-6.8,13.56-16.56,15.67-29.27h-29.68c-2.33,8.48-7.4,12.72-15.18,12.72"/>
            <path class="cls-10" d="M352.42,126.12c0,12.16-.45,20.69-1.34,25.59-1.56,8.81-5.11,16-10.67,21.58-8.89,8.92-19.95,13.38-33.18,13.38s-24.29-4.46-33.18-13.38c-5.56-5.57-9.11-12.77-10.67-21.58-.89-4.91-1.33-13.43-1.33-25.59s.44-20.69,1.33-25.59c1.56-8.81,5.11-16,10.67-21.58,8.89-8.92,19.95-13.39,33.18-13.39s24.29,4.46,33.18,13.39c5.56,5.58,9.11,12.77,10.67,21.58.89,4.91,1.34,13.44,1.34,25.59M323.23,126.12c0-15.73-1.45-25.48-4.33-29.27-2.67-3.46-6.56-5.19-11.67-5.19s-9,1.73-11.67,5.19c-2.89,3.8-4.34,13.55-4.34,29.27s1.39,25.26,4.17,28.94c2.78,3.68,6.73,5.52,11.84,5.52s9.06-1.84,11.84-5.52c2.78-3.68,4.17-13.33,4.17-28.94"/>
            <polygon class="cls-10" points="432.28 185.67 351.75 185.67 351.75 162.92 397.27 92.67 353.75 92.67 353.75 66.57 432.28 66.57 432.28 89.32 386.6 159.58 432.28 159.58 432.28 185.67"/>
            <polygon class="cls-10" points="516.15 92.67 464.63 92.67 464.63 113.58 508.65 113.58 508.65 139.67 464.63 139.67 464.63 185.67 435.45 185.67 435.45 66.57 516.15 66.57 516.15 92.67"/>
            <path class="cls-10" d="M602.85,185.68h-30.51l-5.5-17.73h-36.51l-5.83,17.73h-30.51l43.18-119.1h22.51l43.18,119.1ZM566.84,167.94l-17.67-56.21-18.84,56.21h36.51Z"/>
            <polygon class="cls-10" points="667.88 92.67 638.7 92.67 638.7 185.67 609.52 185.67 609.52 92.67 580.34 92.67 580.34 66.57 667.88 66.57 667.88 92.67"/>
            <polygon class="cls-10" points="795.56 185.67 766.38 185.67 766.38 138.5 735.37 138.5 735.37 185.67 706.19 185.67 706.19 66.57 735.37 66.57 735.37 112.41 766.38 112.41 766.38 66.57 795.56 66.57 795.56 185.67"/>
            <polygon class="cls-10" points="879.16 185.67 800.13 185.67 800.13 66.57 829.31 66.57 829.31 159.58 879.16 159.58 879.16 185.67"/>
            <polygon class="cls-10" points="964.43 185.67 883.73 185.67 883.73 66.57 964.43 66.57 964.43 92.67 912.9 92.67 912.9 112.57 956.93 112.57 956.93 138.67 912.9 138.67 912.9 159.58 964.43 159.58 964.43 185.67"/>
            <polygon class="cls-10" points="1138.39 66.57 1099.04 185.67 1077.37 185.67 1038.19 66.57 1068.37 66.57 1088.37 133.15 1108.05 66.57 1138.39 66.57"/>
            <path class="cls-10" d="M1051.32,123.92l-17.81-54.13c-5.17-2.13-10.99-3.22-17.5-3.22h-47.02v119.1h29.18v-44.33h9.84l21.01,44.33h33.84l-25.68-49.68c6.21-3.12,10.91-7.15,14.14-12.08M1023.85,113.33c-2.34,2.4-5.39,3.59-9.17,3.59h-16.51v-24.09h16.51c3.78,0,6.84,1.2,9.17,3.59,2.33,2.4,3.5,5.22,3.5,8.45s-1.17,6.05-3.5,8.45"/>
            <polygon class="cls-10" points="1267.11 185.67 1241.6 185.67 1203.58 125.79 1203.58 185.67 1174.4 185.67 1174.4 66.57 1199.92 66.57 1237.93 126.45 1237.93 66.57 1267.11 66.57 1267.11 185.67"/>
            <polygon class="cls-10" points="548.85 141.89 534.24 185.67 562.58 185.67 548.85 141.89"/>
            <path class="cls-10" d="M1170.24,85.41v-18.84h-29.18v18.84c4.03,3.16,9.09,5.07,14.59,5.07s10.56-1.9,14.59-5.07"/>
            <path class="cls-10" d="M1155.65,94.15c-5.36,0-10.36-1.58-14.59-4.26v95.79h29.18v-95.79c-4.23,2.68-9.22,4.26-14.59,4.26"/>
            <path class="cls-10" d="M306.37,52.96c0,6.96-5.63,12.61-12.57,12.61s-12.57-5.65-12.57-12.61,5.63-12.61,12.57-12.61,12.57,5.65,12.57,12.61"/>
            <path class="cls-10" d="M333.23,52.96c0,6.96-5.63,12.61-12.57,12.61s-12.57-5.65-12.57-12.61,5.63-12.61,12.57-12.61,12.57,5.65,12.57,12.61"/>
          </g>
          <g>
            <path class="cls-11" d="M243.4,238.75c0,22.35-54.49,40.46-121.7,40.46S0,261.1,0,238.75s54.49-40.46,121.7-40.46,121.7,18.11,121.7,40.46Z"/>
            <path class="cls-7" d="M226.9,20.84C195.41,9.91,155.87,0,120.63,0S45.85,9.91,14.36,20.84c-2.58.9-4.24,3.24-4.21,5.97,1.15,117.81,47.78,185.33,110.48,211.94,62.7-26.6,109.33-94.13,110.48-211.94.03-2.74-1.62-5.08-4.21-5.97ZM120.63,221.51C61.82,193.2,28.41,126.89,25.98,33.49c22.72-7.48,60.25-17.78,94.65-17.78s71.93,10.3,94.65,17.78c-2.43,93.4-35.84,159.71-94.65,188.02Z"/>
            <path class="cls-3" d="M120.63,237.04C51.43,207.34,12.76,132.71,11.72,26.8c-.02-2.05,1.22-3.8,3.15-4.47C37.2,14.58,80.64,1.57,120.63,1.57s83.42,13,105.76,20.75c1.94.67,3.17,2.43,3.15,4.47-1.04,105.91-39.7,180.54-108.91,210.25h0ZM120.63,14.14c-33.81,0-70.4,9.71-95.14,17.86l-1.11.37.03,1.17c2.44,93.65,36.37,160.91,95.54,189.39l.68.33.68-.33c59.17-28.48,93.1-95.74,95.54-189.39l.03-1.17-1.11-.37c-24.74-8.15-61.33-17.86-95.14-17.86h0Z"/>
            <path class="cls-2" d="M120.63,221.51C61.82,193.2,28.41,126.89,25.98,33.49c22.72-7.48,60.25-17.78,94.65-17.78s71.93,10.3,94.65,17.78c-2.43,93.4-35.84,159.71-94.65,188.02h0Z"/>
            <path class="cls-4" d="M120.63,218.01c-27.99-13.85-50.07-36.56-65.66-67.52-15.68-31.15-24.35-69.74-25.78-114.75,24.35-7.88,59.25-16.9,91.44-16.9s67.09,9.02,91.44,16.9c-1.43,45.01-10.1,83.6-25.78,114.75-15.59,30.96-37.67,53.67-65.66,67.51h0Z"/>
            <path class="cls-8" d="M56.37,151.07c-15.68-31.15-24.35-69.74-25.78-114.75,24.35-7.88,59.25-16.9,91.44-16.9,26.59,0,55.09,6.05,77.93,12.6-23.06-6.74-52.15-13.18-79.33-13.18-32.19,0-67.1,9.02-91.44,16.9,1.43,45.01,10.1,83.6,25.78,114.75,14.86,29.52,35.64,51.52,61.8,65.51-25.53-14.03-45.78-35.91-60.4-64.93Z"/>
            <g class="cls-1">
              <path class="cls-5" d="M24.41,33.53l-.03-1.17,1.11-.37c13.59-4.47,30.75-9.42,49.07-12.97-1.69-4.14-3.94-7.99-6.67-11.45-21.41,4.43-40.52,10.41-53.02,14.75-1.94.67-3.17,2.43-3.15,4.47.19,19.66,1.69,38.24,4.43,55.66,4.16,1.31,8.58,2.04,13.15,2.15-2.76-15.99-4.41-33.04-4.88-51.08Z"/>
            </g>
            <g>
              <path class="cls-9" d="M101.81,113.46h20.69c-2.28,9.05-10.45,15.77-20.21,15.77-4.53,0-8.71-1.46-12.13-3.91l-17.21,19.69c8.04,6.44,18.23,10.31,29.33,10.31,24.21,0,44.12-18.32,46.67-41.85h16.69l-30.98-39.07-32.86,39.07Z"/>
              <path class="cls-9" d="M174.96,92.92h12.47c6.57,0,8.02-18.53,8.02-18.53h-55.31l32.02,42.14h-18.39s-3.25,28.01-28.74,37.25h33.19c11.44-2.13,16.75-27.9,16.75-27.9h7.6c6.33-1.3,7.23-18.53,7.23-18.53h-14.83v-14.44Z"/>
              <path class="cls-9" d="M105.3,64.6c-25.93,0-46.94,21.02-46.94,46.94,0,11.85,4.4,22.66,11.64,30.92l17.25-20.5c-1.78-3.07-2.81-6.62-2.81-10.42,0-11.52,9.34-20.86,20.86-20.86,2.53,0,4.94.47,7.19,1.3l17.26-20.51c-7.12-4.35-15.49-6.87-24.45-6.87ZM96.23,86.67c-2.15,0-3.9-1.75-3.9-3.9s1.75-3.9,3.9-3.9,3.9,1.75,3.9,3.9-1.74,3.9-3.9,3.9ZM106.3,86.67c-2.15,0-3.9-1.75-3.9-3.9s1.75-3.9,3.9-3.9,3.9,1.75,3.9,3.9-1.75,3.9-3.9,3.9Z"/>
            </g>
            <g class="cls-15">
              <path class="cls-6" d="M59.42,149.6c9.48-64.14,64.75-113.36,131.52-113.36,3.37,0,6.71.13,10.02.37-22.67-6.69-52.03-13.33-79.32-13.33-30.73,0-64.1,8.42-87.57,15.85,1.68,43.23,10.18,80.34,25.28,110.33.02.04.05.09.07.14Z"/>
            </g>
          </g>
        </g>
      </g>
    </g>
  </g>
</svg>